<svg width="100" height="100" viewBox="0 0 100 100" xmlns="http://www.w3.org/2000/svg"><title>Group 2</title><desc>Created with Sketch.</desc><g fill="#000" fill-rule="nonzero"><path d="M57.5 26.9v-26.9h-15v26.9l7.5 10.3zM42.5 73.1v26.9h15v-26.9l-7.5-10.3zM57.5 73.1l15.8 21.8 12.2-8.9-15.9-21.7-12.1-4zM42.5 26.9l-15.8-21.8-12.2 8.9 15.9 21.7 12.1 4zM30.4 35.7l-25.6-8.3-4.7 14.3 25.6 8.3 12.2-3.9zM62.1 53.9l7.5 10.4 25.6 8.3 4.7-14.3-25.6-8.3zM74.3 50l25.6-8.3-4.7-14.3-25.6 8.3-7.5 10.4zM25.7 50l-25.6 8.3 4.7 14.3 25.6-8.3 7.5-10.4zM30.4 64.3l-15.9 21.7 12.2 8.9 15.8-21.8v-12.8zM69.6 35.7l15.9-21.7-12.2-8.9-15.8 21.8v12.8z"/></g></svg>