<svg width="200" height="200" viewBox="0 0 200 200" xmlns="http://www.w3.org/2000/svg"><title>Group</title><desc>Created with Sketch.</desc><g fill-rule="nonzero" fill="none"><path fill="#000" d="M0 0h200v200h-200z"/><path id="Path" fill="#fff" d="M107.5 76.9v-26.9h-15v26.9l7.5 10.3zM92.5 123.1v26.9h15v-26.9l-7.5-10.3z"/><path id="Path" fill="#00F2E6" d="M107.5 123.1l15.8 21.8 12.2-8.9-15.9-21.7-12.1-4zM92.5 76.9l-15.8-21.8-12.2 8.9 15.9 21.7 12.1 4z"/><path id="Path" fill="#00B9F1" d="M80.4 85.7l-25.6-8.3-4.7 14.3 25.6 8.3 12.2-3.9zM112.1 103.9l7.5 10.4 25.6 8.3 4.7-14.3-25.6-8.3z"/><path id="Path" fill="#D63AFF" d="M124.3 100l25.6-8.3-4.7-14.3-25.6 8.3-7.5 10.4zM75.7 100l-25.6 8.3 4.7 14.3 25.6-8.3 7.5-10.4z"/><path fill="#FB015B" d="M80.4 114.3l-15.9 21.7 12.2 8.9 15.8-21.8v-12.8zM119.6 85.7l15.9-21.7-12.2-8.9-15.8 21.8v12.8z"/></g></svg>